<?xml version="1.0" encoding="utf-8"?>
<!-- Generator: Adobe Illustrator 27.5.0, SVG Export Plug-In . SVG Version: 6.00 Build 0)  -->
<svg version="1.1" xmlns="http://www.w3.org/2000/svg" xmlns:xlink="http://www.w3.org/1999/xlink" x="0px" y="0px"
	 viewBox="0 0 500 500" style="enable-background:new 0 0 500 500;" xml:space="preserve">
<g id="Background_Complete">
	<g>
		<rect y="382.398" style="fill:#E0E0E0;" width="500" height="0.25"/>
		<rect x="430.482" y="391.922" style="fill:#E0E0E0;" width="33.123" height="0.25"/>
		<rect x="272.544" y="396.998" style="fill:#E0E0E0;" width="19.193" height="0.25"/>
		<rect x="435.723" y="404.79" style="fill:#E0E0E0;" width="19.193" height="0.25"/>
		<rect x="34.39" y="399.678" style="fill:#E0E0E0;" width="25.04" height="0.25"/>
		<rect x="68.334" y="399.678" style="fill:#E0E0E0;" width="6.333" height="0.25"/>
		<rect x="88.737" y="392.626" style="fill:#E0E0E0;" width="93.676" height="0.25"/>
		<path style="fill:#E0E0E0;" d="M237.013,337.8H43.915c-3.147,0-5.708-2.561-5.708-5.708V60.66c0-3.147,2.561-5.708,5.708-5.708
			h193.098c3.147,0,5.708,2.561,5.708,5.708v271.432C242.721,335.239,240.16,337.8,237.013,337.8z M43.915,55.203
			c-3.01,0-5.458,2.448-5.458,5.458v271.432c0,3.01,2.448,5.458,5.458,5.458h193.098c3.009,0,5.458-2.448,5.458-5.458V60.66
			c0-3.009-2.448-5.458-5.458-5.458H43.915z"/>
		<path style="fill:#E0E0E0;" d="M453.31,337.8H260.212c-3.146,0-5.707-2.561-5.707-5.708V60.66c0-3.147,2.561-5.708,5.707-5.708
			H453.31c3.148,0,5.708,2.561,5.708,5.708v271.432C459.019,335.239,456.458,337.8,453.31,337.8z M260.212,55.203
			c-3.009,0-5.457,2.448-5.457,5.458v271.432c0,3.01,2.448,5.458,5.457,5.458H453.31c3.01,0,5.458-2.448,5.458-5.458V60.66
			c0-3.009-2.448-5.458-5.458-5.458H260.212z"/>
		<g>
			<g>
				<path style="fill:#E0E0E0;" d="M426.813,363.009H71.187c-4.136,0-7.52-3.384-7.52-7.52V87.932c0-4.136,3.384-7.52,7.52-7.52
					h355.626c4.136,0,7.52,3.384,7.52,7.52v267.557C434.333,359.625,430.949,363.009,426.813,363.009z"/>
				<path style="fill:#EBEBEB;" d="M428.813,363.009H73.187c-4.136,0-7.52-3.384-7.52-7.52V87.932c0-4.136,3.384-7.52,7.52-7.52
					h355.626c4.136,0,7.52,3.384,7.52,7.52v267.557C436.333,359.625,432.949,363.009,428.813,363.009z"/>
				<path style="fill:#EBEBEB;" d="M65.667,99.857v255.631c0,4.136,3.384,7.52,7.52,7.52h355.626c4.136,0,7.52-3.384,7.52-7.52
					V99.857H65.667z"/>
				<rect x="67.055" y="109.857" style="fill:#FAFAFA;" width="367.889" height="243.152"/>
				<path style="fill:#E0E0E0;" d="M421.67,330.309H80.33c-0.069,0-0.125-0.056-0.125-0.125V132.684
					c0-0.069,0.056-0.125,0.125-0.125h218.13c0.069,0,0.125,0.056,0.125,0.125c0,0.069-0.056,0.125-0.125,0.125H80.455v197.249
					h341.09V132.809H379.36c-0.069,0-0.125-0.056-0.125-0.125c0-0.069,0.056-0.125,0.125-0.125h42.31
					c0.069,0,0.125,0.056,0.125,0.125v197.499C421.795,330.253,421.739,330.309,421.67,330.309z"/>
				<circle style="fill:#FAFAFA;" cx="82.167" cy="90.191" r="4"/>
				<circle style="fill:#FAFAFA;" cx="96.34" cy="90.191" r="4"/>
				<circle style="fill:#FAFAFA;" cx="110.513" cy="90.191" r="4"/>
				<rect x="65.667" y="99.357" style="fill:#E0E0E0;" width="370.667" height="1"/>
			</g>
			<g>
				<g>
					<rect x="98.333" y="123.612" style="fill:#E0E0E0;" width="80.892" height="117.172"/>
					<path style="fill:#E0E0E0;" d="M379.355,240.908h-80.892c-0.069,0-0.125-0.056-0.125-0.125V123.612
						c0-0.069,0.056-0.125,0.125-0.125h80.892c0.069,0,0.125,0.056,0.125,0.125v117.171
						C379.48,240.852,379.425,240.908,379.355,240.908z M298.589,240.658h80.642V123.737h-80.642V240.658z"/>
					<rect x="100.67" y="123.612" style="fill:#EBEBEB;" width="83.555" height="117.172"/>
					
						<rect x="90.861" y="147.42" transform="matrix(-1.836970e-16 1 -1 -1.836970e-16 324.6448 39.7501)" style="fill:#FAFAFA;" width="103.172" height="69.556"/>
					
						<rect x="125.139" y="181.697" transform="matrix(-1.836970e-16 1 -1 -1.836970e-16 358.9226 5.4723)" style="fill:#E0E0E0;" width="103.172" height="1"/>
				</g>
				
					<ellipse transform="matrix(0.1591 -0.9873 0.9873 0.1591 -60.0955 293.8377)" style="fill:#EBEBEB;" cx="142.447" cy="182.197" rx="21.333" ry="21.333"/>
			</g>
			<g>
				<g>
					<g>
						<rect x="98.333" y="254.956" style="fill:#E0E0E0;" width="80.892" height="98.053"/>
						<rect x="100.67" y="254.956" style="fill:#EBEBEB;" width="83.555" height="98.053"/>
						
							<rect x="96.921" y="272.705" transform="matrix(-1.836970e-16 1 -1 -1.836970e-16 449.9302 165.0355)" style="fill:#E6E6E6;" width="91.053" height="69.556"/>
						
							<rect x="131.199" y="306.983" transform="matrix(-1.836970e-16 1 -1 -1.836970e-16 484.208 130.7577)" style="fill:#E0E0E0;" width="91.053" height="1"/>
					</g>
				</g>
				<rect x="122.787" y="293.882" style="fill:#FAFAFA;" width="39.32" height="39.32"/>
			</g>
			<g>
				<g>
					<g>
						<rect x="198.398" y="189.001" style="fill:#E0E0E0;" width="80.892" height="117.172"/>
						<rect x="200.735" y="189.001" style="fill:#EBEBEB;" width="83.556" height="117.172"/>
						
							<rect x="190.927" y="212.809" transform="matrix(-1.836970e-16 1 -1 -1.836970e-16 490.0989 5.0738)" style="fill:#FAFAFA;" width="103.172" height="69.556"/>
						
							<rect x="225.204" y="247.086" transform="matrix(-1.836970e-16 1 -1 -1.836970e-16 524.3767 -29.204)" style="fill:#E0E0E0;" width="103.172" height="1"/>
					</g>
				</g>
				<polygon style="fill:#E6E6E6;" points="242.596,224.442 221.263,261.392 263.929,261.392 				"/>
			</g>
		</g>
		<g>
			<path style="fill:#E0E0E0;" d="M459.855,369.817c-23.027,5.012-48.81-36.75-5.789-78.325
				C462.111,334.08,500,361.08,459.855,369.817z"/>
			<path style="fill:#EBEBEB;" d="M421.027,334.594c-5.529-6.733-12.065-14.308-10.477-22.311
				c1.639-8.079,5.543-13.971,2.394-22.497c-3.772-10.221-3.04-22.425,3.337-21.405c6.366,1.026,13.528,8.499,13.337,18.407
				c-0.116,9.591,6.151,12.654,12.047,17.761c5.876,5.062,8.176,12.548,9.231,19.912c1.86,11.614,16.892,9.412,20.889,19.504
				c4.117,9.727-4.107,22.701-17.269,25.682c-13.21,2.992-22.535,4.841-31.507-5.423
				C413.882,353.31,429.203,344.242,421.027,334.594z"/>
			<path style="fill:#E0E0E0;" d="M451.031,324.67c0.116-0.074,0.15-0.228,0.075-0.345c-0.073-0.116-0.228-0.147-0.345-0.076
				c-0.078,0.051-7.636,5.017-9.739,14.425c-1.665-5.609-3.484-11.303-5.361-16.903c-0.001-0.035-0.016-0.062-0.031-0.094
				c-1.778-5.303-3.606-10.518-5.401-15.488c0-0.001,0.001-0.001,0.001-0.003c0.093-4.117,3.596-8.32,3.631-8.362
				c0.089-0.105,0.075-0.264-0.03-0.352c-0.105-0.088-0.263-0.074-0.353,0.03c-0.136,0.162-3.076,3.698-3.647,7.589
				c-0.785-2.163-1.563-4.28-2.327-6.33c0-0.002,0.002-0.003,0.002-0.005c-0.069-2.673,2.838-7.081,2.867-7.125
				c0.076-0.115,0.045-0.27-0.069-0.347c-0.116-0.076-0.271-0.045-0.347,0.069c-0.109,0.164-2.362,3.581-2.856,6.329
				c-2.085-5.581-4.05-10.668-5.751-14.985c-0.004-0.016-0.009-0.028-0.017-0.042c-3.414-8.667-5.756-14.225-5.837-14.415
				c-0.055-0.126-0.198-0.187-0.328-0.133c-0.127,0.054-0.186,0.201-0.133,0.328c0.079,0.186,2.324,5.513,5.62,13.865
				c-6.358-2.663-9.762-2.249-9.908-2.229c-0.137,0.019-0.231,0.145-0.213,0.281c0.018,0.138,0.149,0.229,0.28,0.215
				c0.038-0.005,3.591-0.432,10.097,2.382c3.871,9.831,9.108,23.629,13.996,38.146c-12.157-8.812-24.501-7.947-24.621-7.934
				c-0.138,0.011-0.24,0.131-0.229,0.269c0.012,0.138,0.131,0.247,0.268,0.23c0.13-0.011,12.673-0.89,24.856,8.253
				c3.673,10.959,7.128,22.286,9.63,32.592c-8.544-7.709-22.188-8.225-22.328-8.23c-0.146,0.012-0.254,0.103-0.258,0.242
				c-0.004,0.138,0.105,0.253,0.242,0.258c0.141,0.004,14.199,0.534,22.553,8.605c1.324,5.544,2.366,10.779,3.004,15.48
				c0.017,0.126,0.125,0.217,0.248,0.217c0.011,0,0.022-0.001,0.033-0.002c0.138-0.018,0.233-0.145,0.215-0.281
				c-0.64-4.717-1.686-9.971-3.015-15.533c0-0.008-0.004-0.013-0.005-0.021c-1.194-4.996-2.617-10.241-4.187-15.579
				C443.073,329.882,450.952,324.722,451.031,324.67z"/>
			<polygon style="fill:#E0E0E0;" points="459.416,367.873 434.672,367.873 434.672,370.317 436.182,370.317 437.527,392.047 
				456.561,392.047 457.906,370.317 459.416,370.317 			"/>
		</g>
	</g>
</g>
<g id="Background_Simple" style="display:none;">
	<path style="display:inline;fill:#407BFF;" d="M159.364,124.839c74.489-41.29,166.163-10.013,211.856,59.194
		c38.81,58.782,22.547,174.201-59.644,149.698c-52.317-15.597-52.163-89.982-103.871-104.464
		c-25.145-7.043-49.468,13.716-74.303-2.883C88.533,196.393,126.065,143.297,159.364,124.839z"/>
	<path style="display:inline;opacity:0.9;fill:#FFFFFF;" d="M159.364,124.839c74.489-41.29,166.163-10.013,211.856,59.194
		c38.81,58.782,22.547,174.201-59.644,149.698c-52.317-15.597-52.163-89.982-103.871-104.464
		c-25.145-7.043-49.468,13.716-74.303-2.883C88.533,196.393,126.065,143.297,159.364,124.839z"/>
</g>
<g id="Shadow">
	<ellipse style="fill:#F5F5F5;" cx="250" cy="416.238" rx="193.889" ry="11.323"/>
</g>
<g id="Picture">
	<g>
		<path style="fill:#F5F5F5;" d="M398.301,417.145c0,1.072-18.833,1.941-42.064,1.941c-23.231,0-42.064-0.869-42.064-1.941
			c0-1.072,18.833-1.941,42.064-1.941C379.468,415.203,398.301,416.073,398.301,417.145z"/>
		<g>
			
				<rect x="389.317" y="243.807" transform="matrix(0.0876 -0.9962 0.9962 0.0876 120.385 620.0715)" style="fill:#263238;" width="18.724" height="1.025"/>
			
				<rect x="387.936" y="215.332" transform="matrix(0.0877 -0.9961 0.9961 0.0877 151.0077 596.5712)" style="fill:#263238;" width="26.515" height="1.025"/>
			<rect x="315.717" y="131.961" style="fill:#263238;" width="12.457" height="1.026"/>
			<polygon style="fill:#263238;" points="296.51,274.714 391.875,274.714 404.074,136.578 308.709,136.578 			"/>
			<polygon style="fill:#263238;" points="324.067,417.145 319.743,417.145 351.912,205.494 356.237,205.494 			"/>
			<polygon style="fill:#263238;" points="388.406,417.145 392.73,417.145 360.561,205.494 356.237,205.494 			"/>
			<g>
				<polygon style="fill:#407BFF;" points="290.615,276.596 389.121,276.596 401.319,138.459 302.814,138.459 				"/>
				<polygon style="opacity:0.8;fill:#FAFAFA;" points="290.615,276.596 389.121,276.596 401.319,138.459 302.814,138.459 				"/>
			</g>
			<polygon style="fill:#407BFF;" points="381.597,268.343 392.338,146.712 310.338,146.712 299.596,268.343 			"/>
			<g>
				<defs>
					<polygon id="SVGID_1_" points="381.597,268.343 392.338,146.712 310.338,146.712 299.596,268.343 					"/>
				</defs>
				<clipPath id="SVGID_00000018214421471734539750000017496074662882388389_">
					<use xlink:href="#SVGID_1_"  style="overflow:visible;"/>
				</clipPath>
				<g style="clip-path:url(#SVGID_00000018214421471734539750000017496074662882388389_);">
					<path style="fill:#407BFF;" d="M408.95,200.885c-20.563-12.216-28.16,1.868-43.543,10.099
						c-13.159,7.041-40.989-13.115-55.792,12.438c-14.802,25.553,28.179,86.897,84.741,60.071
						C425.057,268.932,442.507,220.821,408.95,200.885z"/>
					<path style="opacity:0.1;" d="M408.95,200.885c-20.563-12.216-28.16,1.868-43.543,10.099
						c-13.159,7.041-40.989-13.115-55.792,12.438c-14.802,25.553,28.179,86.897,84.741,60.071
						C425.057,268.932,442.507,220.821,408.95,200.885z"/>
				</g>
				<g style="clip-path:url(#SVGID_00000018214421471734539750000017496074662882388389_);">
					<path style="fill:#407BFF;" d="M363.345,194.505c11.991,3.649,14.098-4.468,20.9-10.579
						c5.818-5.227,22.499,1.555,26.841-13.299c4.342-14.854-25.196-40.706-50.632-19.987
						C346.647,161.885,343.776,188.551,363.345,194.505z"/>
					<path style="opacity:0.1;" d="M363.345,194.505c11.991,3.649,14.098-4.468,20.9-10.579c5.818-5.227,22.499,1.555,26.841-13.299
						c4.342-14.854-25.196-40.706-50.632-19.987C346.647,161.885,343.776,188.551,363.345,194.505z"/>
				</g>
			</g>
			<path style="fill:#FAFAFA;" d="M317.071,149.901c-0.852,0-1.617-0.331-2.156-0.933c-0.543-0.606-0.791-1.413-0.695-2.271
				c0.193-1.751,1.777-3.176,3.527-3.176c0.851,0,1.616,0.331,2.155,0.933c0.543,0.606,0.79,1.413,0.695,2.271
				C320.405,148.477,318.823,149.901,317.071,149.901z M317.747,143.779c-1.624,0-3.092,1.322-3.272,2.947
				c-0.086,0.785,0.138,1.52,0.632,2.071c0.489,0.547,1.187,0.848,1.965,0.848c1.624,0,3.092-1.322,3.271-2.947
				c0.086-0.785-0.138-1.52-0.632-2.072C319.221,144.08,318.523,143.779,317.747,143.779z"/>
			<path style="fill:#FAFAFA;" d="M326.075,149.901c-0.852,0-1.616-0.331-2.155-0.932c-0.543-0.606-0.79-1.413-0.695-2.271
				c0.192-1.751,1.775-3.176,3.526-3.176c0.852,0,1.617,0.332,2.156,0.933c0.543,0.606,0.79,1.413,0.694,2.271l0,0
				C329.409,148.477,327.826,149.901,326.075,149.901z M326.75,143.779c-1.624,0-3.092,1.322-3.272,2.947
				c-0.086,0.785,0.138,1.52,0.632,2.071c0.489,0.547,1.186,0.847,1.964,0.847c1.624,0,3.092-1.322,3.272-2.947l0,0
				c0.087-0.785-0.137-1.52-0.631-2.071C328.226,144.08,327.528,143.779,326.75,143.779z"/>
			<g>
				<path style="fill:#FAFAFA;" d="M346.478,182.377c-13.89,0-26.145,11.26-27.371,25.15c-0.65,7.363,1.929,13.986,6.565,18.585
					l37.17-37.17C358.732,184.865,353.006,182.377,346.478,182.377z"/>
				<g>
					<path style="fill:#407BFF;" d="M368.169,187.448c4.447,4.628,6.651,11.089,6.057,17.812
						c-1.202,13.61-13.251,24.682-26.86,24.682c-5.969,0-11.499-2.147-15.633-6.058L368.169,187.448 M368.172,186.719l-37.17,37.17
						c4.11,4.078,9.836,6.565,16.364,6.565c13.89,0,26.145-11.26,27.371-25.15C375.388,197.942,372.808,191.319,368.172,186.719
						L368.172,186.719z"/>
					<path style="opacity:0.2;" d="M368.169,187.448c4.447,4.628,6.651,11.089,6.057,17.812
						c-1.202,13.61-13.251,24.682-26.86,24.682c-5.969,0-11.499-2.147-15.633-6.058L368.169,187.448 M368.172,186.719l-37.17,37.17
						c4.11,4.078,9.836,6.565,16.364,6.565c13.89,0,26.145-11.26,27.371-25.15C375.388,197.942,372.808,191.319,368.172,186.719
						L368.172,186.719z"/>
				</g>
			</g>
			<polygon style="fill:#263238;" points="300.775,268.343 311.517,146.712 310.338,146.712 299.596,268.343 			"/>
			<g>
				<polygon style="fill:#407BFF;" points="291.784,275.721 292.163,276.6 389.121,276.6 389.198,275.721 				"/>
				<polygon style="opacity:0.1;fill:#FAFAFA;" points="291.784,275.721 292.163,276.6 389.121,276.6 389.198,275.721 				"/>
			</g>
			<g>
				<polygon style="fill:#407BFF;" points="283.576,273.754 283.955,276.6 382.464,276.6 382.085,273.754 				"/>
				<polygon style="opacity:0.3;fill:#FAFAFA;" points="283.576,273.754 283.955,276.6 382.464,276.6 382.085,273.754 				"/>
			</g>
		</g>
	</g>
</g>
<g id="Character">
	<g>
		<g>
			<path style="fill:#F5F5F5;" d="M211.441,417.145c0,1.072-18.833,1.941-42.064,1.941s-42.064-0.869-42.064-1.941
				c0-1.072,18.833-1.941,42.064-1.941S211.441,416.073,211.441,417.145z"/>
			<polygon style="fill:#E58A7B;" points="181.122,409.469 188.639,409.469 189.388,392.06 181.87,392.06 			"/>
			<polygon style="fill:#E58A7B;" points="135.986,409.469 143.504,409.469 147.282,392.06 139.765,392.06 			"/>
			<path style="fill:#263238;" d="M144.038,408.599l-8.445,0c-0.307,0-0.574,0.214-0.64,0.513l-1.485,6.682
				c-0.154,0.693,0.391,1.349,1.101,1.337c2.949-0.051,4.381-0.224,8.095-0.224c2.285,0,6.993,0.237,10.148,0.237
				c3.086,0,3.567-3.12,2.276-3.403c-5.792-1.267-7.974-3.014-9.828-4.681C144.924,408.76,144.487,408.599,144.038,408.599z"/>
			<path style="fill:#263238;" d="M188.59,408.599l-8.21,0c-0.307,0-0.573,0.214-0.64,0.513l-1.485,6.682
				c-0.154,0.693,0.372,1.349,1.081,1.337c2.962-0.05,7.241-0.224,10.963-0.224c4.352,0,8.111,0.237,13.215,0.237
				c3.086,0,3.943-3.12,2.651-3.403c-5.881-1.286-10.683-1.424-15.764-4.558C189.848,408.844,189.238,408.599,188.59,408.599z"/>
			<path style="fill:#E58A7B;" d="M194.126,163.827l10.139-4.016c0,0,11.672,23.836,15.345,25.039
				c4.998,1.637,15.266,6.189,21.476,7.042c0.786,0.986,1.995,4.098,1.796,5.232c-8.564,2.8-26.797-0.918-30.574-3.851
				C203.695,186.584,194.126,163.827,194.126,163.827z"/>
			<path style="fill:#407BFF;" d="M191.393,158.419c-2.533,6.726,10.301,26.532,10.301,26.532l15.035-8.165
				c0,0-3.505-9.879-8.688-17.599C202.72,151.26,194.173,151.037,191.393,158.419z"/>
			<g>
				<path style="fill:#407BFF;" d="M191.167,159.27c2.948-1.396,6.253-0.228,9.572,5.327c3.276,5.498,5.999,14.84,6.235,17.488
					l-5.281,2.866C201.693,184.951,189.842,166.662,191.167,159.27z"/>
				<path style="opacity:0.2;" d="M191.167,159.27c2.948-1.396,6.253-0.228,9.572,5.327c3.276,5.498,5.999,14.84,6.235,17.488
					l-5.281,2.866C201.693,184.951,189.842,166.662,191.167,159.27z"/>
			</g>
			<path style="fill:#FAFAFA;" d="M199.019,184.279c-0.182,0-0.358-0.097-0.451-0.268c-0.135-0.249-0.043-0.561,0.206-0.696
				l15.035-8.165c0.249-0.134,0.56-0.043,0.696,0.206c0.135,0.249,0.043,0.561-0.206,0.696l-15.035,8.165
				C199.185,184.259,199.101,184.279,199.019,184.279z"/>
			<path style="fill:#E58A7B;" d="M239.824,191.821l8.476-3.48l2.868,9.164c0,0-4.825,0.865-10.225,0L239.824,191.821z"/>
			<polygon style="fill:#E58A7B;" points="254.461,188.115 254.322,194.212 251.168,197.504 248.3,188.34 			"/>
			<g>
				<polygon style="fill:#CF6F64;" points="189.386,392.065 189.002,401.038 181.481,401.038 181.866,392.065 				"/>
				<polygon style="fill:#CF6F64;" points="139.762,392.065 147.282,392.065 145.331,401.038 137.811,401.038 				"/>
			</g>
			<path style="fill:#407BFF;" d="M200.319,153.274c0,0,8.872,22.701,0.445,64.976c-12.115,0-34.313,0-40.208,0
				c-0.277-6.172,3.601-36.281-2.352-65.363c0,0,6.892-1.383,13.46-1.7c5.138-0.248,12.576-0.411,17.092,0.001
				C194.711,151.731,200.319,153.274,200.319,153.274z"/>
			<path style="fill:#FAFAFA;" d="M189.039,183.287c-3.902,0-7.287-3.93-7.585-8.858c-0.169-2.794,0.671-5.421,2.305-7.208
				c1.195-1.307,2.751-2.054,4.381-2.101c3.938-0.103,7.451,3.858,7.754,8.856c0.169,2.793-0.671,5.421-2.305,7.208
				c-1.195,1.307-2.751,2.053-4.381,2.101C189.151,183.286,189.095,183.287,189.039,183.287z M188.31,166.143
				c-0.047,0-0.094,0.001-0.141,0.003c-1.37,0.04-2.633,0.651-3.654,1.768c-1.448,1.584-2.19,3.936-2.038,6.454
				c0.27,4.451,3.278,8.003,6.7,7.892c1.37-0.04,2.633-0.651,3.654-1.767c1.448-1.584,2.19-3.936,2.038-6.454
				C194.603,169.647,191.676,166.143,188.31,166.143z"/>
			<g>
				<path style="fill:#407BFF;" d="M166.938,160.067c0.67,4.786-0.84,16.238-5.398,29.47c-0.014-10.184-0.627-21.992-2.778-33.757
					v-0.057C161.412,155.452,166.298,155.581,166.938,160.067z"/>
				<path style="opacity:0.2;" d="M166.938,160.067c0.67,4.786-0.84,16.238-5.398,29.47c-0.014-10.184-0.627-21.992-2.778-33.757
					v-0.057C161.412,155.452,166.298,155.581,166.938,160.067z"/>
			</g>
			<path style="fill:#FAFAFA;" d="M191.354,151.482c-0.841-0.113-1.713-0.215-2.596-0.298c-4.514-0.41-11.953-0.246-17.094,0
				c-0.718,0.041-1.436,0.082-2.154,0.144l0.246,0.616c0.113,0.277,2.852,6.874,14.334,6.874c1.508,0,6.074,0,7.51-3.078
				C192.319,154.201,191.898,152.621,191.354,151.482z"/>
			<path style="fill:#E58A7B;" d="M173.358,131.941c1.078,5.5,2.154,15.576-1.694,19.246c0,0,2.21,5.579,12.429,5.579
				c9.338,0,4.663-5.578,4.663-5.578c-6.133-1.464-5.974-6.014-4.906-10.287L173.358,131.941z"/>
			<path style="fill:#CF6F64;" d="M177.635,135.597l6.21,5.299c-0.256,1.011-0.456,2.037-0.527,3.034
				c-2.017,1.898-5.561-2.91-5.81-5.363C177.385,137.342,177.436,136.167,177.635,135.597z"/>
			<path style="fill:#263238;" d="M190.837,115.024c3.699,1.566,5.709,11.939,0.977,14.321
				C187.081,131.728,183.83,112.059,190.837,115.024z"/>
			<path style="fill:#E58A7B;" d="M172.703,123.665c0.457,7.447,0.347,11.828,4.108,15.651c5.657,5.749,14.849,2.339,16.626-5.094
				c1.599-6.691,0.583-17.745-6.706-20.708C179.549,110.594,172.246,116.218,172.703,123.665z"/>
			<path style="fill:#263238;" d="M177.025,120.366c1.573,6.143,1.49,10.982-1.636,11.259c-3.126,0.277-8.908-9.432-8.721-13.811
				c0.287-6.706,5.193-1.276,3.472-6.944c-1.073-3.534,4.865-6.741,9.466-5.519c7.596,2.018,9.871,11.958,15.915,4.926
				c3.495-4.067,13.911,0.003,7.28,6.212c-6.515,6.1-0.91,6.568-0.91,6.568s-8.388-0.356-5.262-5.025
				c3.126-4.669-5.717,1.761-11.335,0.099C179.904,116.536,175.845,115.755,177.025,120.366z"/>
			<path style="fill:#E58A7B;" d="M169.34,131.874c1.056,1.712,2.805,2.776,4.419,3.131c2.429,0.534,3.504-1.672,2.713-3.891
				c-0.712-1.998-2.834-4.683-5.216-4.222C168.91,127.345,168.132,129.916,169.34,131.874z"/>
			<path style="fill:#263238;" d="M170.952,113.627c-0.737-0.412-2.413-1.347-2.782-3.825
				C168.17,109.802,166.313,114.401,170.952,113.627z"/>
			<g>
				<path style="fill:#407BFF;" d="M200.764,218.25c0,0,1.035,56.206,0.218,79.131c-0.85,23.845-9.179,101.92-9.179,101.92h-12.735
					c0,0-0.467-76.682-1.034-100.1c-0.618-25.53-3.7-80.951-3.7-80.951H200.764z"/>
				<path style="opacity:0.6;" d="M200.764,218.25c0,0,1.035,56.206,0.218,79.131c-0.85,23.845-9.179,101.92-9.179,101.92h-12.735
					c0,0-0.467-76.682-1.034-100.1c-0.618-25.53-3.7-80.951-3.7-80.951H200.764z"/>
			</g>
			<g>
				<path style="fill:#407BFF;" d="M178.095,395.551c-0.059,0-0.461,3.854-0.461,3.854h15.157l1.082-4.424L178.095,395.551z"/>
				<path style="opacity:0.1;" d="M178.095,395.551c-0.059,0-0.461,3.854-0.461,3.854h15.157l1.082-4.424L178.095,395.551z"/>
			</g>
			<g>
				<path style="fill:#407BFF;" d="M183.178,233.127c-0.243,27.892-1.924,44.834-5.372,58.451
					c-0.442-13.303-1.268-30.894-2.008-45.508L183.178,233.127z"/>
				<path style="opacity:0.8;" d="M183.178,233.127c-0.243,27.892-1.924,44.834-5.372,58.451
					c-0.442-13.303-1.268-30.894-2.008-45.508L183.178,233.127z"/>
			</g>
			<g>
				<path style="fill:#407BFF;" d="M186.501,218.25c0,0-8.531,57.45-13.215,78.972c-5.129,23.569-24.451,102.078-24.451,102.078
					h-13.769c0,0,12.741-76.606,15.668-99.942c3.176-25.327,9.822-81.109,9.822-81.109H186.501z"/>
				<path style="opacity:0.6;" d="M186.501,218.25c0,0-8.531,57.45-13.215,78.972c-5.129,23.569-24.451,102.078-24.451,102.078
					h-13.769c0,0,12.741-76.606,15.668-99.942c3.176-25.327,9.822-81.109,9.822-81.109H186.501z"/>
			</g>
			<g>
				<path style="fill:#407BFF;" d="M134.494,395.551c-0.062,0-0.485,3.854-0.485,3.854h15.936l1.138-4.424L134.494,395.551z"/>
				<path style="opacity:0.1;" d="M134.494,395.551c-0.062,0-0.485,3.854-0.485,3.854h15.936l1.138-4.424L134.494,395.551z"/>
			</g>
			<g>
				<path style="fill:#407BFF;" d="M140.615,391.166c-0.007,0-0.014-0.001-0.021-0.002c-0.07-0.011-0.117-0.077-0.106-0.147
					c0.116-0.696,11.608-69.853,14.237-90.814c2.854-22.751,8.865-73.197,8.926-73.704c0.008-0.07,0.073-0.116,0.142-0.112
					c0.071,0.008,0.121,0.072,0.112,0.142c-0.06,0.507-6.072,50.954-8.926,73.706c-2.629,20.965-14.122,90.128-14.238,90.824
					C140.732,391.122,140.677,391.166,140.615,391.166z"/>
				<path style="opacity:0.2;" d="M140.615,391.166c-0.007,0-0.014-0.001-0.021-0.002c-0.07-0.011-0.117-0.077-0.106-0.147
					c0.116-0.696,11.608-69.853,14.237-90.814c2.854-22.751,8.865-73.197,8.926-73.704c0.008-0.07,0.073-0.116,0.142-0.112
					c0.071,0.008,0.121,0.072,0.112,0.142c-0.06,0.507-6.072,50.954-8.926,73.706c-2.629,20.965-14.122,90.128-14.238,90.824
					C140.732,391.122,140.677,391.166,140.615,391.166z"/>
			</g>
			<g>
				<g>
					<path style="fill:#407BFF;" d="M248.592,191.528c-7.195,4.938-14.861,9.009-22.657,12.84c-3.895,1.92-7.863,3.708-11.809,5.534
						c-3.951,1.819-7.891,3.656-11.872,5.418c-7.933,3.579-15.905,7.085-23.926,10.502c-8.017,3.423-16.086,6.751-24.257,9.891
						c-3.099,1.191-6.576-0.356-7.767-3.454c-0.998-2.598-0.068-5.463,2.083-7.023c7.087-5.137,14.277-10.085,21.518-14.94
						c7.238-4.86,14.524-9.631,21.849-14.329c3.648-2.376,7.337-4.677,11.015-6.997c3.683-2.312,7.344-4.663,11.078-6.882
						c7.462-4.446,15.055-8.653,23.117-11.992c6.255-2.59,13.425,0.38,16.015,6.635
						C255.237,182.179,253.269,188.323,248.592,191.528z"/>
					<path style="opacity:0.3;" d="M248.592,191.528c-7.195,4.938-14.861,9.009-22.657,12.84c-3.895,1.92-7.863,3.708-11.809,5.534
						c-3.951,1.819-7.891,3.656-11.872,5.418c-7.933,3.579-15.905,7.085-23.926,10.502c-8.017,3.423-16.086,6.751-24.257,9.891
						c-3.099,1.191-6.576-0.356-7.767-3.454c-0.998-2.598-0.068-5.463,2.083-7.023c7.087-5.137,14.277-10.085,21.518-14.94
						c7.238-4.86,14.524-9.631,21.849-14.329c3.648-2.376,7.337-4.677,11.015-6.997c3.683-2.312,7.344-4.663,11.078-6.882
						c7.462-4.446,15.055-8.653,23.117-11.992c6.255-2.59,13.425,0.38,16.015,6.635
						C255.237,182.179,253.269,188.323,248.592,191.528z"/>
				</g>
				<g>
					<g>
						<path style="fill:#407BFF;" d="M278.231,151.294c-3.028,1.608-5.42,2.877-9.309,2.877v0.44c3.999,0,6.434-1.292,9.516-2.928
							L278.231,151.294z"/>
						<path style="opacity:0.3;" d="M278.231,151.294c-3.028,1.608-5.42,2.877-9.309,2.877v0.44c3.999,0,6.434-1.292,9.516-2.928
							L278.231,151.294z"/>
					</g>
					<g>
						<path style="fill:#407BFF;" d="M263.315,153.656v0.44c0.51,0,1.026,0.045,1.534,0.133c0.013,0.002,0.026,0.003,0.038,0.003
							l0.038-0.436C264.392,153.703,263.85,153.656,263.315,153.656z"/>
						<path style="opacity:0.3;" d="M263.315,153.656v0.44c0.51,0,1.026,0.045,1.534,0.133c0.013,0.002,0.026,0.003,0.038,0.003
							l0.038-0.436C264.392,153.703,263.85,153.656,263.315,153.656z"/>
					</g>
					<g>
						<path style="fill:#407BFF;" d="M277.992,174.589c-4.372,3.996-8.935,6.107-13.194,6.107v0.44
							c4.372,0,9.036-2.152,13.491-6.222L277.992,174.589z"/>
						<path style="opacity:0.3;" d="M277.992,174.589c-4.372,3.996-8.935,6.107-13.194,6.107v0.44c4.372,0,9.036-2.152,13.491-6.222
							L277.992,174.589z"/>
					</g>
					<g>
						<path style="fill:#407BFF;" d="M281.847,151.383c-5.136,2.705-9.298,5.28-18.476,3.691
							c-8.457-1.471-15.354,11.697-8.62,19.831c6.234,7.525,15.19,5.03,22.646-1.783c3.615-3.304,6.55-7.983,8.43-12.315
							c-1.175,0.61-2.401,1.232-3.74,1.809C278.416,164.196,278.824,158.201,281.847,151.383z"/>
						<path style="opacity:0.5;fill:#FAFAFA;" d="M281.847,151.383c-5.136,2.705-9.298,5.28-18.476,3.691
							c-8.457-1.471-15.354,11.697-8.62,19.831c6.234,7.525,15.19,5.03,22.646-1.783c3.615-3.304,6.55-7.983,8.43-12.315
							c-1.175,0.61-2.401,1.232-3.74,1.809C278.416,164.196,278.824,158.201,281.847,151.383z"/>
					</g>
					<g>
						<path style="fill:#407BFF;" d="M285.506,149.588c-1.309,0.575-2.515,1.187-3.659,1.795
							c-3.023,6.818-3.431,12.813,0.239,11.232c1.34-0.577,2.565-1.199,3.74-1.809C288.807,153.969,289.165,147.988,285.506,149.588
							z"/>
						<path style="opacity:0.3;" d="M285.506,149.588c-1.309,0.575-2.515,1.187-3.659,1.795c-3.023,6.818-3.431,12.813,0.239,11.232
							c1.34-0.577,2.565-1.199,3.74-1.809C288.807,153.969,289.165,147.988,285.506,149.588z"/>
					</g>
					<g>
						<path style="fill:#407BFF;" d="M277.86,157.932c-0.357,1.216-1.182,2.045-1.843,1.851c-0.661-0.194-0.907-1.337-0.549-2.553
							c0.357-1.216,1.182-2.045,1.843-1.851C277.971,155.572,278.217,156.716,277.86,157.932z"/>
						<path style="opacity:0.3;" d="M277.86,157.932c-0.357,1.216-1.182,2.045-1.843,1.851c-0.661-0.194-0.907-1.337-0.549-2.553
							c0.357-1.216,1.182-2.045,1.843-1.851C277.971,155.572,278.217,156.716,277.86,157.932z"/>
					</g>
				</g>
			</g>
			<path style="fill:#263238;" d="M183.999,125.747c0,0.606,0.321,1.098,0.718,1.098c0.396,0,0.718-0.491,0.718-1.098
				c0-0.606-0.321-1.098-0.718-1.098C184.32,124.649,183.999,125.14,183.999,125.747z"/>
			<path style="fill:#263238;" d="M190.852,125.747c0,0.606,0.321,1.098,0.718,1.098c0.396,0,0.718-0.491,0.718-1.098
				c0-0.606-0.321-1.098-0.718-1.098C191.174,124.649,190.852,125.14,190.852,125.747z"/>
			<path style="fill:#DF5753;" d="M188.673,126.048c0,0,1.379,3.498,2.897,5.186c-1.073,1.001-2.897,0.544-2.897,0.544V126.048z"/>
			<path style="fill:#263238;" d="M186.906,133.452c0.098,0,0.178-0.08,0.178-0.178c0-0.098-0.08-0.178-0.178-0.178
				c-2.662,0-3.904-1.859-3.916-1.878c-0.055-0.082-0.166-0.106-0.246-0.051c-0.082,0.053-0.106,0.163-0.052,0.246
				C182.747,131.495,184.053,133.452,186.906,133.452z"/>
			<path style="fill:#263238;" d="M181.934,123.536c0.108,0,0.214-0.049,0.284-0.141c0.959-1.267,2.268-1.191,2.281-1.189
				c0.184,0.02,0.367-0.134,0.38-0.33c0.014-0.196-0.134-0.367-0.33-0.381c-0.07-0.006-1.71-0.103-2.899,1.47
				c-0.119,0.157-0.088,0.381,0.069,0.499C181.783,123.513,181.859,123.536,181.934,123.536z"/>
			<path style="fill:#263238;" d="M193.93,123.318c0.052-0.003,0.105-0.018,0.153-0.046c0.171-0.096,0.231-0.314,0.134-0.485
				c-0.971-1.714-2.61-1.834-2.68-1.839c-0.191-0.019-0.365,0.136-0.377,0.333c-0.012,0.196,0.136,0.364,0.331,0.378l0,0
				c0.055,0.004,1.331,0.112,2.107,1.479C193.667,123.26,193.799,123.326,193.93,123.318z"/>
			<path style="fill:#E58A7B;" d="M156.051,157.959l9.058,6.073c0,0-13.011,23.133-11.919,26.84
				c1.486,5.045,3.561,16.083,6.381,21.682c-0.367,1.207-2.244,3.967-3.29,4.447c-7.164-5.464-14.442-22.59-14.169-27.365
				C142.736,178.748,156.051,157.959,156.051,157.959z"/>
			<path style="fill:#407BFF;" d="M158.204,152.887c-7.112,1.035-15.258,25.68-15.258,25.68l14.938,8.437
				c0,0,6.579-11.722,9.823-20.426C171.107,157.458,165.833,151.777,158.204,152.887z"/>
			<path style="fill:#FAFAFA;" d="M157.498,184.593c-0.086,0-0.172-0.021-0.252-0.066l-14.455-8.165
				c-0.246-0.14-0.334-0.452-0.194-0.699c0.141-0.247,0.452-0.332,0.699-0.194l14.455,8.165c0.246,0.14,0.334,0.452,0.194,0.699
				C157.85,184.499,157.677,184.593,157.498,184.593z"/>
			<path style="fill:#407BFF;" d="M146.524,409.911c0.572,0,1.107-0.097,1.447-0.383c0.27-0.227,0.394-0.544,0.368-0.942
				c-0.018-0.296-0.175-0.437-0.305-0.504c-0.823-0.426-3.256,1.063-3.53,1.234c-0.061,0.039-0.092,0.11-0.081,0.181
				c0.012,0.069,0.065,0.127,0.134,0.143C145.079,409.768,145.829,409.911,146.524,409.911z M147.641,408.356
				c0.093,0,0.171,0.014,0.231,0.044c0.048,0.025,0.104,0.071,0.112,0.209c0.018,0.284-0.061,0.495-0.241,0.647
				c-0.41,0.346-1.392,0.392-2.669,0.135C145.922,408.9,147.065,408.356,147.641,408.356z"/>
			<path style="fill:#407BFF;" d="M144.599,409.647c0.029,0,0.058-0.007,0.085-0.021c0.778-0.423,2.282-2.07,2.123-2.909
				c-0.029-0.151-0.14-0.414-0.567-0.466c-0.279-0.035-0.531,0.043-0.758,0.228c-0.873,0.714-1.053,2.884-1.06,2.975
				c-0.005,0.065,0.026,0.128,0.081,0.163C144.531,409.637,144.565,409.647,144.599,409.647z M146.116,406.599
				c0.027,0,0.053,0.003,0.081,0.006c0.231,0.028,0.252,0.135,0.26,0.179c0.095,0.495-0.864,1.74-1.637,2.327
				c0.088-0.634,0.328-1.899,0.887-2.356C145.835,406.651,145.969,406.599,146.116,406.599z"/>
			<path style="fill:#407BFF;" d="M191.716,409.912c0.746,0,1.436-0.115,1.826-0.462c0.248-0.22,0.36-0.512,0.333-0.867
				c-0.016-0.212-0.118-0.376-0.294-0.473c-0.912-0.513-3.934,1.022-4.277,1.199c-0.067,0.035-0.105,0.109-0.094,0.184
				c0.01,0.075,0.067,0.135,0.141,0.15C189.99,409.771,190.888,409.912,191.716,409.912z M193.077,408.356
				c0.138,0,0.252,0.021,0.333,0.065c0.071,0.04,0.105,0.097,0.112,0.191c0.018,0.241-0.052,0.428-0.215,0.573
				c-0.462,0.41-1.7,0.48-3.359,0.204C190.987,408.894,192.365,408.356,193.077,408.356z"/>
			<path style="fill:#407BFF;" d="M189.388,409.647c0.025,0,0.049-0.006,0.073-0.015c0.907-0.408,2.705-2.032,2.567-2.884
				c-0.032-0.199-0.174-0.448-0.663-0.497c-0.357-0.044-0.696,0.065-0.988,0.305c-0.956,0.786-1.159,2.81-1.167,2.896
				c-0.005,0.063,0.022,0.124,0.074,0.161C189.315,409.636,189.351,409.647,189.388,409.647z M191.222,406.599
				c0.035,0,0.071,0.003,0.107,0.006c0.321,0.033,0.341,0.159,0.348,0.2c0.082,0.51-1.139,1.787-2.065,2.344
				c0.096-0.591,0.364-1.803,0.992-2.317C190.793,406.676,190.996,406.599,191.222,406.599z"/>
			<path style="fill:#E58A7B;" d="M159.571,212.553l7.151-0.554l-3.762,7.913c0,0-6.268,0.277-7.315-4.514L159.571,212.553z"/>
			<polygon style="fill:#E58A7B;" points="172.535,215.602 168.776,222.602 162.96,219.912 166.722,211.999 			"/>
		</g>
	</g>
</g>
</svg>
