<svg xmlns="http://www.w3.org/2000/svg" viewBox="0 0 64 64" id="catalogue">
  <g>
    <path d="M61.34 20.606c-8.59-2.3-17.84-7.106-26.752-13.9a1 1 0 0 0-.97-.137c-9.115 3.56-18.306 4.793-26.576 3.565a1.007 1.007 0 0 0-.968 1.56q2.85 4.102 5.9 7.892a43.797 43.797 0 0 1-6.9-.456 1.006 1.006 0 0 0-.97 1.56 144.536 144.536 0 0 0 4.83 6.512 43.642 43.642 0 0 1-5.863-.452 1.007 1.007 0 0 0-.966 1.56 128.54 128.54 0 0 0 27.304 28.984.999.999 0 0 0 .97.136 79.458 79.458 0 0 0 27.422-18.552 1.007 1.007 0 0 0-.454-1.664 57.801 57.801 0 0 1-2.917-.879q2.785-2.4 5.401-5.067a1 1 0 0 0-.457-1.665 55.734 55.734 0 0 1-4.116-1.301 86.356 86.356 0 0 0 6.538-6.031 1.007 1.007 0 0 0-.456-1.665Zm-6.161 18.07A77.183 77.183 0 0 1 30.174 55.36 125.739 125.739 0 0 1 5.042 29a47.063 47.063 0 0 0 5.441.18A123.589 123.589 0 0 0 31.42 49.684a1 1 0 0 0 .97.137 76.263 76.263 0 0 0 20.25-11.985c.831.292 1.671.579 2.54.84Zm2.03-7.61a76.993 76.993 0 0 1-25.024 16.685 125.631 125.631 0 0 1-25.14-26.365 48.195 48.195 0 0 0 6.548.159 122.558 122.558 0 0 0 19.795 19.14 1 1 0 0 0 .97.136A75.762 75.762 0 0 0 53.43 29.777c1.275.478 2.541.915 3.78 1.289Zm-23.056 7.685a126.052 126.052 0 0 1-25.14-26.363 55.418 55.418 0 0 0 24.809-3.754c8.415 6.347 17.134 10.963 25.351 13.434a77.09 77.09 0 0 1-25.02 16.683Z"></path>
    <path d="M38.883 22.115a1 1 0 0 0-.428-.908A107.24 107.24 0 0 1 29.185 14a1.005 1.005 0 0 0-.933-.205 54.465 54.465 0 0 1-12.74 2.154 1.007 1.007 0 0 0-.716 1.65 129.424 129.424 0 0 0 9.18 9.663 1.001 1.001 0 0 0 .9.252 65.053 65.053 0 0 0 13.431-4.576 1 1 0 0 0 .576-.822Zm-13.917 3.328a126.78 126.78 0 0 1-7.328-7.628 57.207 57.207 0 0 0 10.647-1.951 110.458 110.458 0 0 0 7.59 5.972 62.532 62.532 0 0 1-10.91 3.607Z"></path>
    <path d="M27.21 17.486c-.384.702-.765 1.379-1.148 2.072a53.406 53.406 0 0 1-4.642-1.045 1 1 0 1 0-.531 1.927c1.37.378 2.759.685 4.154.957-.27.485-.543.985-.813 1.466a1.006 1.006 0 0 0 .872 1.49c1.163-.113 1.39-1.776 2.024-2.588 1.65.253 3.307.454 4.968.552a1 1 0 0 0 .063-1.998 52.93 52.93 0 0 1-3.994-.426c.393-.844 1.585-2.085.404-2.805a1 1 0 0 0-1.357.398zm5.507-1.786a1.001 1.001 0 0 0 1.292.575 69.208 69.208 0 0 0 3.166-1.308 1 1 0 1 0-.81-1.83c-1.024.454-2.058.882-3.073 1.271a1 1 0 0 0-.575 1.292zm3.365 2.517c.834 1.45 2.592-.28 3.688-.607a1 1 0 0 0-.882-1.795c-.915.668-3.349.867-2.806 2.402zm3.357 2.306c.728 1.23 2.03-.01 2.916-.394a1 1 0 0 0 .403-1.355c-.733-1.202-2.006.048-2.884.403a1 1 0 0 0-.435 1.346zm2.552 4.073a1 1 0 0 0-1.35-.419 66.618 66.618 0 0 1-11.51 4.78 1 1 0 1 0 .586 1.912 68.677 68.677 0 0 0 11.856-4.922 1 1 0 0 0 .418-1.351zm.286 3.32a69.192 69.192 0 0 1-9.198 4.313 1 1 0 0 0 .71 1.87 71.223 71.223 0 0 0 9.465-4.439 1 1 0 0 0-.977-1.745z"></path>
  </g>
</svg>
