<svg xmlns="http://www.w3.org/2000/svg" viewBox="0 0 100 100" id="brochure">
  <path d="m45.16 19 15.34-8.59V19H45.16zM18.5 9c-2.21 0-4 1.79-4 4v60c0 2.21 1.79 4 4 4h17V21c0-.03.01-.05.01-.08 0-.07.01-.14.02-.21l.03-.18c.02-.07.04-.13.06-.19s.04-.12.07-.18c.03-.06.06-.11.09-.17.03-.05.07-.11.1-.16.04-.05.08-.1.13-.15.04-.05.08-.09.13-.14.05-.04.09-.08.14-.12l.18-.12c.02-.01.04-.03.06-.05L54.83 9H18.5zm67 18v60c0 2.21-1.79 4-4 4h-42V23h42c2.21 0 4 1.79 4 4zm-6 56c0-1.1-.9-2-2-2h-30c-1.1 0-2 .9-2 2s.9 2 2 2h30c1.1 0 2-.9 2-2zm0-10c0-1.1-.9-2-2-2h-30c-1.1 0-2 .9-2 2s.9 2 2 2h30c1.1 0 2-.9 2-2zm0-10c0-1.1-.9-2-2-2h-30c-1.1 0-2 .9-2 2s.9 2 2 2h30c1.1 0 2-.9 2-2zm0-32c0-1.1-.9-2-2-2h-30c-1.1 0-2 .9-2 2v22c0 1.1.9 2 2 2h30c1.1 0 2-.9 2-2V31zm-30 20h26V33h-26v18z"></path>
</svg>
